HIERARCHY
ROOT Hips
{
	OFFSET 0.000000 0.000000 0.000000
	CHANNELS 6 Xposition Yposition Zposition Zrotation Yrotation Xrotation 
	JOINT LHipJoint
	{
		OFFSET 0.000000 0.000000 0.000000
		CHANNELS 3 Zrotation Yrotation Xrotation
		JOINT LeftUpLeg
		{
			OFFSET 1.363060 -1.794630 0.839290
			CHANNELS 3 Zrotation Yrotation Xrotation
			JOINT LeftLeg
			{
				OFFSET 2.448110 -6.726130 0.000000
				CHANNELS 3 Zrotation Yrotation Xrotation
				JOINT LeftFoot
				{
					OFFSET 2.562200 -7.039590 0.000000
					CHANNELS 3 Zrotation Yrotation Xrotation
					JOINT LeftToeBase
					{
						OFFSET 0.157640 -0.433110 2.322550
						CHANNELS 3 Zrotation Yrotation Xrotation
						End Site
						{
							OFFSET 0.000000 0.000000 0.000000
						}
					}
				}
			}
		}
	}
	JOINT RHipJoint
	{
		OFFSET 0.000000 0.000000 0.000000
		CHANNELS 3 Zrotation Yrotation Xrotation
		JOINT RightUpLeg
		{
			OFFSET -1.305520 -1.794630 0.839290
			CHANNELS 3 Zrotation Yrotation Xrotation
			JOINT RightLeg
			{
				OFFSET -2.542530 -6.985550 0.000000
				CHANNELS 3 Zrotation Yrotation Xrotation
				JOINT RightFoot
				{
					OFFSET -2.568260 -7.056230 0.000000
					CHANNELS 3 Zrotation Yrotation Xrotation
					JOINT RightToeBase
					{
						OFFSET -0.164730 -0.452590 2.363150
						CHANNELS 3 Zrotation Yrotation Xrotation
						End Site
						{
							OFFSET 0.000000 0.000000 0.000000
						}
					}
				}
			}
		}
	}
	JOINT LowerBack
	{
		OFFSET 0.000000 0.000000 0.000000
		CHANNELS 3 Zrotation Yrotation Xrotation
		JOINT Spine
		{
			OFFSET 0.028270 2.035590 -0.193380
			CHANNELS 3 Zrotation Yrotation Xrotation
			JOINT Spine1
			{
				OFFSET 0.056720 2.048850 -0.042750
				CHANNELS 3 Zrotation Yrotation Xrotation
				JOINT Neck
				{
					OFFSET 0.000000 0.000000 0.000000
					CHANNELS 3 Zrotation Yrotation Xrotation
					JOINT Neck1
					{
						OFFSET -0.054170 1.746240 0.172020
						CHANNELS 3 Zrotation Yrotation Xrotation
						JOINT Head
						{
							OFFSET 0.104070 1.761360 -0.123970
							CHANNELS 3 Zrotation Yrotation Xrotation
							End Site
							{
								OFFSET 0.000000 0.000000 0.000000
							}
						}
					}
				}
				JOINT LeftShoulder
				{
					OFFSET 0.000000 0.000000 0.000000
					CHANNELS 3 Zrotation Yrotation Xrotation
					JOINT LeftArm
					{
						OFFSET 3.362410 1.200890 -0.311210
						CHANNELS 3 Zrotation Yrotation Xrotation
						JOINT LeftForeArm
						{
							OFFSET 4.983000 -0.000000 -0.000000
							CHANNELS 3 Zrotation Yrotation Xrotation
							JOINT LeftHand
							{
								OFFSET 3.483560 -0.000000 -0.000000
								CHANNELS 3 Zrotation Yrotation Xrotation
								JOINT LeftFingerBase
								{
									OFFSET 0.000000 0.000000 0.000000
									CHANNELS 3 Zrotation Yrotation Xrotation
									JOINT LeftHandIndex1
									{
										OFFSET 0.715260 -0.000000 -0.000000
										CHANNELS 3 Zrotation Yrotation Xrotation
										End Site
										{
											OFFSET 0.000000 0.000000 0.000000
										}
									}
								}
								JOINT LThumb
								{
									OFFSET 0.000000 0.000000 0.000000
									CHANNELS 3 Zrotation Yrotation Xrotation
									End Site
									{
										OFFSET 0.000000 0.000000 0.000000
									}
								}
							}
						}
					}
				}
				JOINT RightShoulder
				{
					OFFSET 0.000000 0.000000 0.000000
					CHANNELS 3 Zrotation Yrotation Xrotation
					JOINT RightArm
					{
						OFFSET -3.136600 1.374050 -0.404650
						CHANNELS 3 Zrotation Yrotation Xrotation
						JOINT RightForeArm
						{
							OFFSET -5.241900 -0.000000 -0.000000
							CHANNELS 3 Zrotation Yrotation Xrotation
							JOINT RightHand
							{
								OFFSET -3.444170 -0.000000 -0.000000
								CHANNELS 3 Zrotation Yrotation Xrotation
								JOINT RightFingerBase
								{
									OFFSET 0.000000 0.000000 0.000000
									CHANNELS 3 Zrotation Yrotation Xrotation
									JOINT RightHandIndex1
									{
										OFFSET -0.622530 -0.000000 -0.000000
										CHANNELS 3 Zrotation Yrotation Xrotation
										End Site
										{
											OFFSET 0.000000 0.000000 0.000000
										}
									}
								}
								JOINT RThumb
								{
									OFFSET 0.000000 0.000000 0.000000
									CHANNELS 3 Zrotation Yrotation Xrotation
									End Site
									{
										OFFSET 0.000000 0.000000 0.000000
									}
								}
							}
						}
					}
				}
			}
		}
	}
}
MOTION
Frames: 10
Frame Time: 0.008333
-1.677348 17.675064 -1.155892 29.416181 84.724575 46.361059 -11.089501 3.574373 -1.419534 -6.494739 11.209069 -6.713323 -0.907408 1.360683 21.985937 0.879234 3.171120 19.386835 1.091700 0.000000 -66.925400 8.335424 -0.651242 2.791271 14.639806 4.331564 -31.616695 3.493001 1.150846 3.990652 -0.265802 -0.972714 -1.019838 -0.710800 0.000000 -60.620200 0.498292 -4.195457 -0.874152 0.440545 -4.191427 -3.134059 -3.743845 -4.166139 -0.550504 7.359433 -18.248336 -9.388527 -1.886663 -0.122078 -0.433754 0.000000 0.000000 0.000000 8.070510 7.687838 -1.263283 -78.520040 -0.660482 31.770055 -178.939296 -62.455172 179.967622 3.660377 -5.735799 -0.209796 -0.091912 0.808168 -0.000000 0.000000 0.000000 0.000000 0.000000 0.000000 0.000000 0.854730 -13.661745 -1.227834 71.153480 -17.640211 31.567558 -179.991912 69.278552 179.977972 -1.071635 8.218383 -0.073299 -0.100292 -0.532889 0.000000 0.000000 0.000000 0.000000 0.000000 0.000000 0.000000 
-1.438370 17.684102 -1.099913 29.958400 84.292329 46.635841 -11.055813 3.676335 -1.409056 -6.487828 11.295057 -6.410058 -0.816482 1.434251 23.086903 0.940346 3.175896 20.434469 1.097300 -0.000001 -64.471500 8.422371 -0.705140 2.616465 15.482487 3.225561 -31.209746 3.613536 1.247693 2.711784 -0.105642 -0.498328 0.229561 -0.693700 -0.000000 -62.037000 0.372451 -4.228675 -0.773855 0.427902 -4.213447 -3.108665 -3.689573 -4.188713 -0.503659 7.257106 -18.376446 -9.400026 -1.877914 -0.121308 -0.435148 0.000000 0.000000 0.000000 8.248839 7.774689 -1.299114 -78.721996 -0.347091 31.932367 -178.975816 -62.370765 179.969567 3.402589 -5.719088 -0.193685 -0.076916 0.804199 -0.000000 0.000000 0.000000 0.000000 0.000000 0.000000 0.000000 0.806347 -13.809295 -1.274679 71.283075 -17.871253 31.240533 -179.995341 69.441667 179.978306 -1.020729 8.228040 -0.069426 -0.101264 -0.528638 0.000000 0.000000 0.000000 0.000000 0.000000 0.000000 0.000000 
-1.201778 17.681374 -1.042825 30.506671 83.836893 46.918750 -11.007033 3.759625 -1.390164 -6.544723 11.245330 -6.231148 -0.723059 1.512114 24.512931 1.006429 3.388704 21.021168 1.183000 -0.000000 -61.868800 8.511747 -0.770367 2.423482 16.295803 2.154556 -30.876496 3.703589 1.284953 1.891882 0.017932 -0.151826 1.390364 -0.675800 0.000000 -62.559000 0.215445 -4.257974 -0.663768 0.404414 -4.229895 -3.080723 -3.652731 -4.204639 -0.461018 7.175631 -18.495676 -9.410942 -1.877024 -0.121131 -0.436888 0.000000 0.000000 0.000000 8.425258 7.839919 -1.336740 -78.906110 -0.012854 32.064992 -179.028674 -62.324489 179.970044 3.295209 -5.705402 -0.186624 -0.067126 0.799842 -0.000000 0.000000 0.000000 0.000000 0.000000 0.000000 0.000000 0.812943 -13.947361 -1.312648 71.449021 -18.017731 30.878714 179.996861 69.669253 179.978570 -0.998360 8.263376 -0.068036 -0.100682 -0.525305 -0.000000 0.000000 0.000000 0.000000 0.000000 0.000000 0.000000 
-0.967676 17.666300 -0.984842 30.996226 83.359639 47.155884 -10.947952 3.823650 -1.376512 -6.652715 11.109879 -6.183617 -0.628980 1.596597 26.247819 1.074755 3.789218 21.170103 1.342800 0.000000 -59.184200 8.597983 -0.843169 2.240321 17.022010 1.236422 -30.587624 3.753157 1.273406 1.470327 0.091437 -0.011241 2.424363 -0.681901 -0.000000 -62.063500 0.034894 -4.282796 -0.554611 0.372497 -4.240858 -3.052585 -3.630879 -4.214331 -0.423999 7.110245 -18.597632 -9.419364 -1.882693 -0.121485 -0.438365 0.000000 0.000000 0.000000 8.595835 7.882902 -1.375106 -79.069356 0.341705 32.164064 -179.095672 -62.302725 179.969164 3.329363 -5.697607 -0.188013 -0.062324 0.795422 -0.000000 0.000000 0.000000 0.000000 0.000000 0.000000 0.000000 0.858986 -14.065670 -1.341321 71.657531 -18.088557 30.480611 179.985729 69.957888 179.978803 -0.997293 8.313513 -0.068433 -0.098907 -0.522569 -0.000000 0.000000 0.000000 0.000000 0.000000 0.000000 0.000000 
-0.736146 17.638501 -0.926339 31.401632 82.863696 47.330212 -10.881999 3.869126 -1.377409 -6.800760 10.929398 -6.264502 -0.534394 1.688729 28.252297 1.146276 4.365559 20.944965 1.568400 0.000001 -56.602100 8.677626 -0.917331 2.087720 17.615824 0.558208 -30.330271 3.756595 1.221526 1.424748 0.107602 -0.111781 3.247907 -0.728900 -0.000001 -60.360599 -0.161988 -4.303058 -0.455006 0.334613 -4.246726 -3.026191 -3.621342 -4.218515 -0.393599 7.057037 -18.675186 -9.425059 -1.893746 -0.122291 -0.439440 0.000000 0.000000 0.000000 8.755018 7.905976 -1.412216 -79.210884 0.710882 32.227359 -179.172486 -62.293239 179.967183 3.480621 -5.698457 -0.196557 -0.061753 0.791279 -0.000000 0.000000 0.000000 0.000000 0.000000 0.000000 0.000000 0.931598 -14.155079 -1.360665 71.908732 -18.094172 30.046129 179.972182 70.299463 179.979048 -1.007378 8.370757 -0.069820 -0.096383 -0.520226 0.000000 0.000000 0.000000 0.000000 0.000000 0.000000 0.000000 
-0.507082 17.597813 -0.867814 31.661622 82.356072 47.390939 -10.816173 3.896130 -1.401588 -6.963412 10.753401 -6.479282 -0.439493 1.789105 30.492631 1.221778 5.088256 20.400980 1.839000 0.000000 -54.167701 8.743171 -0.986675 1.986918 18.050520 0.208492 -30.096364 3.711392 1.139681 1.736497 0.059842 -0.480511 3.759108 -0.829999 0.000000 -57.242400 -0.359218 -4.317457 -0.375161 0.294686 -4.247201 -3.004108 -3.622042 -4.217247 -0.371287 7.013270 -18.722113 -9.428694 -1.909722 -0.123520 -0.440190 0.000000 0.000000 0.000000 8.893165 7.911183 -1.445072 -79.331712 1.088830 32.251703 -179.253408 -62.286844 179.964500 3.709692 -5.710799 -0.209966 -0.064126 0.787761 -0.000000 0.000000 0.000000 0.000000 0.000000 0.000000 0.000000 1.022653 -14.206227 -1.370576 72.195381 -18.046058 29.575420 179.956598 70.682344 179.979359 -1.015692 8.429916 -0.071202 -0.093583 -0.518168 -0.000000 0.000000 0.000000 0.000000 0.000000 0.000000 0.000000 
-0.280309 17.544468 -0.809928 31.715668 81.846235 47.287414 -10.757945 3.904569 -1.452853 -7.112481 10.617322 -6.828511 -0.342657 1.896778 32.921008 1.304537 5.940327 19.621804 2.139300 0.000001 -52.095400 8.785267 -1.045457 1.952489 18.322676 0.250304 -29.893149 3.619993 1.036359 2.411983 -0.055128 -1.110675 3.834026 -0.981700 0.000000 -52.484799 -0.537665 -4.324133 -0.324124 0.256819 -4.241582 -2.988765 -3.632375 -4.210094 -0.358559 6.979335 -18.734164 -9.432005 -1.930996 -0.125198 -0.440988 0.000000 0.000000 0.000000 8.996836 7.901756 -1.470004 -79.432097 1.467001 32.235048 -179.331595 -62.281970 179.961580 3.968733 -5.737516 -0.225752 -0.067911 0.785178 -0.000000 0.000000 0.000000 0.000000 0.000000 0.000000 0.000000 1.132605 -14.211478 -1.371180 72.502300 -17.954992 29.069813 179.938904 71.093680 179.979787 -1.011092 8.487919 -0.071480 -0.090860 -0.516369 0.000000 0.000000 0.000000 0.000000 0.000000 0.000000 0.000000 
-0.055618 17.478944 -0.753323 31.491835 81.345701 46.955611 -10.716602 3.894251 -1.533491 -7.209571 10.559605 -7.321287 -0.243911 2.011164 35.510145 1.394134 6.882394 18.638229 2.441900 0.000000 -50.130300 8.791694 -1.090112 1.993765 18.455168 0.721411 -29.743762 3.489819 0.917947 3.475958 -0.238787 -1.966603 3.344058 -1.158400 0.000000 -45.892500 -0.673433 -4.320359 -0.309073 0.225545 -4.228603 -2.982569 -3.652781 -4.195996 -0.357585 6.957335 -18.708349 -9.436367 -1.958999 -0.127444 -0.442093 0.000000 0.000000 0.000000 9.051195 7.878240 -1.483451 -79.513375 1.838730 32.172511 -179.400592 -62.280930 179.958899 4.206940 -5.780270 -0.241130 -0.071435 0.783759 -0.000000 0.000000 0.000000 0.000000 0.000000 0.000000 0.000000 1.269060 -14.164393 -1.362370 72.809011 -17.829078 28.531520 179.918554 71.524626 179.980364 -0.985755 8.542388 -0.070058 -0.088386 -0.514806 0.000000 0.000000 0.000000 0.000000 0.000000 0.000000 0.000000 
0.167258 17.402075 -0.698516 30.950381 80.864521 46.358853 -10.698738 3.864753 -1.638410 -7.226638 10.586011 -7.948902 -0.140488 2.129606 38.204194 1.495134 7.913512 17.549710 2.743300 -0.000001 -48.744700 8.752816 -1.117652 2.106958 18.488815 1.609107 -29.684981 3.332678 0.786064 4.972509 -0.488790 -2.971071 2.175062 -1.306399 -0.000000 -37.374700 -0.747330 -4.303985 -0.331900 0.203942 -4.207311 -2.986461 -3.685476 -4.173988 -0.369181 6.953270 -18.643955 -9.443682 -1.995643 -0.130395 -0.444009 0.000000 0.000000 0.000000 9.039859 7.846884 -1.482030 -79.573200 2.190708 32.064055 -179.453783 -62.300290 179.956873 4.380921 -5.838919 -0.253511 -0.073416 0.783534 -0.000000 0.000000 0.000000 0.000000 0.000000 0.000000 0.000000 1.448993 -14.062680 -1.344939 73.089640 -17.669818 27.966923 179.895078 71.971412 179.981108 -0.941822 8.593101 -0.067131 -0.086002 -0.513499 0.000000 0.000000 0.000000 0.000000 0.000000 0.000000 0.000000 
0.388522 17.314750 -0.645859 30.079013 80.409242 45.482804 -10.709303 3.817468 -1.762148 -7.139307 10.707054 -8.712371 -0.034071 2.251890 40.986024 1.604202 8.993465 16.345461 3.017600 0.000000 -47.397900 8.663989 -1.128210 2.279713 18.476126 2.853159 -29.768509 3.162661 0.636086 6.956232 -0.799070 -4.025528 0.276590 -1.356400 0.000000 -27.191500 -0.745960 -4.273464 -0.389731 0.193559 -4.177076 -3.001119 -3.733037 -4.143411 -0.396696 6.973041 -18.539615 -9.452443 -2.043099 -0.134259 -0.446281 0.000000 0.000000 0.000000 8.951008 7.802202 -1.463902 -79.610843 2.524617 31.901568 -179.488171 -62.359048 179.955791 4.459584 -5.911759 -0.260905 -0.072765 0.784301 -0.000000 0.000000 0.000000 0.000000 0.000000 0.000000 0.000000 1.689959 -13.903954 -1.318565 73.321972 -17.478054 27.381557 179.868156 72.436919 179.982003 -0.887738 8.636953 -0.063298 -0.083352 -0.512356 -0.000000 0.000000 0.000000 0.000000 0.000000 0.000000 0.000000 
